<svg xmlns="http://www.w3.org/2000/svg" width="72" height="72" aria-labelledby="ehl_title ehl_desc"><g fill="#344655"><path d="M35.7 0L1.9 16.6v7.8h3.8v26.5h59.8V24.5H70v-7.8L35.7 0zm22.5 43.9H13V19.4L35.7 7.8l22.4 11.6v24.5z"/><path d="M22.2 20.9h26.9v6.4H22.2zM22.2 32.5h26.9v6.4H22.2zM9.8 55.1v-1H6v5.1h3.8v-.9H7.1v-1.2h2.5v-.9H7.1v-1.1zM15.4 59.2l-.6-.6c.4-.5.7-1.1.7-1.9 0-1.5-.9-2.7-2.5-2.7s-2.5 1.2-2.5 2.7c0 1.5.9 2.6 2.5 2.6.5 0 .9-.1 1.2-.3l.7.7.5-.5zM14 57.9l-.6-.5-.5.6.5.4c-.1.1-.3.1-.4.1-1 0-1.4-.9-1.4-1.7 0-.9.4-1.7 1.4-1.7 1 0 1.4.9 1.4 1.7-.1.4-.2.8-.4 1.1zM16.2 54.1v3.2c0 1.4.8 2 2.2 2 1.4 0 2.2-.7 2.2-2v-3.2h-1.1v3.2c0 .8-.3 1.1-1.1 1.1-.9 0-1-.5-1-1.1v-3.2h-1.2zM25.9 59.2L24 54.1h-1.1L21 59.2h1l.4-1.1h1.9l.4 1.1h1.2zm-3.2-1.9l.7-1.9.6 1.9h-1.3zM26.4 54.1v5.1H30v-.9h-2.5v-4.2zM35.9 59.2h1.2v-5.1h-1.2v2h-2v-2h-1.1v5.1h1.1V57h2zM42.9 56.7c0-1.5-.9-2.7-2.5-2.7s-2.5 1.2-2.5 2.7c0 1.5.9 2.6 2.5 2.6s2.5-1.1 2.5-2.6zm-3.9 0c0-.9.4-1.7 1.4-1.7s1.4.9 1.4 1.7c0 .8-.4 1.7-1.4 1.7s-1.4-.8-1.4-1.7zM48 57.3v-3.2h-1.1v3.2c0 .8-.3 1.1-1.1 1.1-.9 0-1-.5-1-1.1v-3.2h-1.1v3.2c0 1.4.8 2 2.2 2 1.3.1 2.1-.6 2.1-2zM51 58.5c-.6 0-1.1-.3-1.1-.9h-1.1c0 1.3 1 1.8 2.2 1.8 1.4 0 2.1-.7 2.1-1.6 0-1.2-1.1-1.4-1.5-1.5-1.3-.3-1.5-.4-1.5-.8s.4-.6.8-.6c.5 0 1 .2 1 .8H53c0-1.2-1-1.6-2-1.6-.9 0-1.9.5-1.9 1.5s.8 1.2 1.5 1.4c.7.2 1.5.3 1.5.8-.1.6-.7.7-1.1.7zM53.8 54.1h1.1v5.1h-1.1zM57.1 55.8l2.1 3.4h1.1v-5.1h-1v3.5l-2.2-3.5H56v5.1h1.1zM63.7 55c.5 0 .9.3 1.1.9h1.1c-.1-1.2-1.1-1.8-2.1-1.8-1.6 0-2.5 1.2-2.5 2.7 0 1.5.9 2.6 2.5 2.6.5 0 1-.2 1.4-.7l.1.6h.7v-2.8h-2.1v.8H65c-.1.7-.5 1.1-1.2 1.1-1 0-1.4-.9-1.4-1.7-.1-.9.3-1.7 1.3-1.7zM8.1 61.3H5.8V72h7.5v-2H8.1zM16.9 67.4h5.2v-1.8h-5.2v-2.3h5.7v-2h-8V72h8.1v-2h-5.8zM31.3 68.5l-4.5-7.2h-2.3V72h2.2v-7.2l4.5 7.2h2.3V61.3h-2.2zM40.3 61.3h-4.6V72h4.6c3.3 0 4.9-2.3 4.9-5.4 0-3.6-2.1-5.3-4.9-5.3zm-.1 8.7h-2.1v-6.8h1.7c2.3 0 3.1 1.4 3.1 3.5-.1 2.5-1.4 3.3-2.7 3.3zM49.3 67.4h5.2v-1.8h-5.2v-2.3h5.6v-2h-8V72h8.2v-2h-5.8zM64 67c1.2-.5 1.7-1.5 1.7-2.7 0-1.6-1.2-3-3.1-3h-5.8V72h2.4v-4.2h2.4c1.2 0 1.6.5 1.8 1.6.1.9.1 1.9.4 2.6h2.4c-.4-.6-.4-1.9-.5-2.5-.2-1.1-.5-2.2-1.7-2.5zm-2.2-.9h-2.6v-3h2.6c1.1 0 1.6.5 1.6 1.5 0 1.1-.6 1.5-1.6 1.5z"/></g></svg>