<svg xmlns="http://www.w3.org/2000/svg" width="120" height="72" aria-labelledby="norton_title norton_desc"><path fill="none" d="M42.1 62.4c-.7 0-1.2.6-1.4 1.4h2.7c-.1-.8-.5-1.4-1.3-1.4zM58.1 62.5c-.8 0-1.5.7-1.5 1.7s.7 1.7 1.5 1.7 1.5-.6 1.5-1.7c0-1-.7-1.7-1.5-1.7zM79.8 62.4c-.7 0-1.2.6-1.4 1.4h2.7c0-.8-.5-1.4-1.3-1.4zM48.3 62.5c-.8 0-1.5.6-1.5 1.7 0 1 .7 1.7 1.5 1.7s1.5-.7 1.5-1.7-.7-1.7-1.5-1.7zM11.2 62.5c-.8 0-1.5.7-1.5 1.7s.7 1.7 1.5 1.7 1.5-.6 1.5-1.7c0-1-.7-1.7-1.5-1.7zM32 62.4c-.7 0-1.2.6-1.4 1.4h2.7c0-.8-.5-1.4-1.3-1.4zM17.6 62.5c-1 0-1.6.8-1.6 1.7 0 .9.7 1.7 1.6 1.7 1 0 1.6-.8 1.6-1.7 0-.9-.6-1.7-1.6-1.7zM101.9 62.5c-.8 0-1.5.6-1.5 1.4 0 .9.7 1.4 1.5 1.4s1.5-.6 1.5-1.4c.1-.9-.6-1.4-1.5-1.4z"/><path fill="#AAB0B6" d="M35 13.6h2.7V12H30c1.1.4 2.2 1 3.2 1.6H35zM99.7 12H42.5v1.6h-1.6V12h-1.5v1.6h-1.6 62c10.3 0 18.7 8.4 18.7 18.7 0 10.3-8.4 18.7-18.7 18.7H33.2c-1 .6-2.1 1.1-3.2 1.6h69.7c11.2 0 20.3-9.1 20.3-20.3S110.9 12 99.7 12z"/><path d="M90.4 31.8c3 0 5.5-2.4 5.5-5.5 0-3-2.4-5.5-5.5-5.5-3 0-5.5 2.4-5.5 5.5s2.5 5.5 5.5 5.5zm0-8.3c1.5 0 2.8 1.3 2.8 2.8 0 1.5-1.3 2.8-2.8 2.8-1.5 0-2.8-1.3-2.8-2.8 0-1.5 1.3-2.8 2.8-2.8zM65.3 31.8c3 0 5.5-2.4 5.5-5.5 0-3-2.4-5.5-5.5-5.5-3 0-5.5 2.4-5.5 5.5.1 3.1 2.5 5.5 5.5 5.5zm0-8.3c1.6 0 2.8 1.3 2.8 2.8 0 1.5-1.3 2.8-2.8 2.8-1.5 0-2.8-1.3-2.8-2.8 0-1.5 1.3-2.8 2.8-2.8zM74.6 27.1c0-2.3 1.4-3.8 3-3.8h1.7v5.2c0 2.5 1.3 3.4 3.3 3.4 1.1 0 1.9-.2 2.4-.4l-.4-2.1c-.3.1-.9.2-1.1.2-.9 0-1.1-.3-1.1-1.2v-5.1h2.2v-2.1h-2.2v-3h-2.5l-.5 3H77.5c-1.4 0-2.5.9-3.2 2.3l-.9-2.3h-1.8v10.5h3.1v-4.6zM99.6 24.4l-.1-.4.1.4c.5-.5 1-1 1.9-1 .8 0 1.6.5 1.6 1.4v6.8h3.1v-6.9c0-1.8-1-3.8-3.5-3.8-1.5 0-2.7.8-3.6 1.8l-.6-1.6h-1.8v10.5h3v-7.2zM50.7 21.7l5 9.9h3.1V17.3H56v9l-4.7-9h-3.5v14.3h2.9z"/><path fill="#AAB0B6" d="M114 15h.5v-2.5h.8V12h-2.1v.5h.8zM116.2 12.6l.6 2.4h.4l.7-2.4V15h.5v-3h-.8l-.6 1.9-.5-1.9h-.8v3h.5zM50.2 44c-1.1 0-1.9-.4-2.5-.8l-.7 1.1c.6.5 1.7 1 3.2 1 2 0 3.1-1 3.1-2.6 0-1.9-1.4-2.4-2.7-2.9-1.2-.4-1.9-.6-1.9-1.5 0-.7.6-1.1 1.5-1.1.8 0 1.4.2 2 .5l.6-1.2c-.7-.4-1.5-.6-2.6-.6-1.7 0-2.9.9-2.9 2.4 0 1.7 1.2 2.3 2.3 2.7 1.3.5 2.1.7 2.1 1.6.2.9-.5 1.4-1.5 1.4zM57.6 41.1h3.1v-1.3h-3.1v-2.4h3.9v-1.3h-5.4v9.1h5.6v-1.3h-4.1zM67.7 44c-1.5 0-2.2-1.1-2.2-3.2 0-2.2.7-3.5 2.2-3.5.7 0 1.2.3 1.7.8l.9-1c-.6-.7-1.5-1.1-2.7-1.1-2.5 0-3.8 2-3.8 4.7s1.2 4.7 3.8 4.7c1.3 0 2.1-.5 2.8-1.3l-.9-1c-.4.4-.9.9-1.8.9zM77.8 42c0 1.2-.3 2.1-1.6 2.1s-1.6-.8-1.6-2.1v-5.9H73v5.6c0 2.3.9 3.6 3.2 3.6 2.3 0 3.2-1.3 3.2-3.6v-5.6h-1.6V42zM88.7 38.8c0-2-1.4-2.6-3.3-2.6h-3v9.1H84v-3.9h1.4l1.7 3.9h1.7L87 41.1c.9-.3 1.7-1 1.7-2.3zm-3.3 1.4H84v-2.8h1.5c1 0 1.7.4 1.7 1.4-.1 1-.7 1.4-1.8 1.4zM93.1 41.1h3v-1.3h-3v-2.4h3.8v-1.3h-5.4v9.1h5.7v-1.3h-4.1zM102 36.1h-2.3v9.1h2.3c2.9 0 4.3-1.6 4.3-4.6.1-2.9-1.3-4.5-4.3-4.5zm-.1 7.8h-.6v-6.6h.8c2.1 0 2.7 1.2 2.7 3.3 0 2.4-.8 3.3-2.9 3.3z"/><path fill="#FFC10E" d="M33.6 20.2h1.6v1.6h-1.6zM33.6 16.1h1.6v1.6h-1.6z"/><path fill="#FFC10E" d="M43.7 32.2c0-5.3-1.9-10.2-5.1-14H38v1.9h-1.3v1.6h-1.6v1.8h-1.2c1.8 2.5 2.7 5.5 2.7 8.6 0 4-1.6 7.7-4.4 10.6-2.8 2.8-6.6 4.4-10.6 4.4s-7.7-1.6-10.6-4.4C8.5 40 6.9 36.2 6.9 32.2s1.6-7.7 4.4-10.6c2.8-2.8 6.6-4.4 10.6-4.4 3.1 0 6 .9 8.5 2.6v-1.3H32V16h1.7v-1.4H35c-.5-.4-1.1-.8-1.7-1.2-1-.6-2.1-1.1-3.2-1.6-2.5-1-5.3-1.6-8.2-1.6-12.1.2-21.9 10-21.9 22s9.8 21.9 21.9 21.9c2.9 0 5.7-.6 8.2-1.6 1.1-.4 2.2-1 3.2-1.6 6.2-3.9 10.4-10.8 10.4-18.7zM45.7 7h1.7v1.7h-1.7zM40.9 8.7h1.6v1.7h-1.6z"/><path d="M36.1 10.4h1.6v1.5h-1.6zM42.5 13.5V12h1.7v-1.6h-1.7V12h-1.6v1.5zM44 5.3h1.7V7H44zM44 8.7V7h-3.1v1.7h1.6zM39.3 8.7h1.5V12h-1.5zM35 13.5v1.2H33.6v1.4h1.6v1.6h-1.6v-1.6h-1.7v2.5h-1.6v1.6h-1.1v1.6H28c-1.3 2-4.6 8-5.6 10.5-3.6-5-6.4-7-8.6-7.7-1.2-.4-2.6.9-.6 3 4.5 5 5.9 9.1 7.3 12.3.7 1.7 4 2 4.6.2 1.4-3.7 3.4-7.9 5.8-11.3V27h1.3v-1.6h1.3v-1.9h1.6v-1.8h-1.6v-1.6h1.6v1.6h1.6v-1.6H38v-1.9h1.4v-1.3h1.4v-3.4h-1.5v1.6h-1.6v-1.6h1.6V12h-1.6v1.6H35z"/><path fill="#AAB0B6" d="M11.5 61.5c-.8 0-1.4.4-1.8 1v-.9H8.5v6.8h1.2V66c.4.5.9.9 1.8.9 1.2 0 2.4-1 2.4-2.7 0-1.8-1.2-2.7-2.4-2.7zm1.2 2.7c0 1-.7 1.7-1.5 1.7s-1.5-.7-1.5-1.7.7-1.7 1.5-1.7 1.5.7 1.5 1.7zM17.6 61.5c-1.6 0-2.8 1.2-2.8 2.7 0 1.5 1.2 2.7 2.8 2.7 1.6 0 2.8-1.2 2.8-2.7 0-1.5-1.1-2.7-2.8-2.7zm1.6 2.7c0 .9-.6 1.7-1.6 1.7-.9 0-1.6-.8-1.6-1.7 0-.9.6-1.7 1.6-1.7s1.6.8 1.6 1.7zM26.6 65.1l-1.1-3.6h-1.1l-1.1 3.6-1.1-3.5H21l1.7 5.2h1.1l1.1-3.5 1.2 3.5h1.1l1.7-5.2h-1.2zM32.1 61.5c-1.5 0-2.6 1.2-2.6 2.7 0 1.6 1.2 2.7 2.7 2.7 1 0 1.6-.4 2.1-1l-.7-.6c-.4.4-.8.6-1.4.6-.8 0-1.4-.5-1.5-1.3h3.8v-.3c.1-1.5-.8-2.8-2.4-2.8zm-1.4 2.3c.1-.8.6-1.4 1.4-1.4.8 0 1.2.6 1.3 1.4h-2.7zM37 62.7v-1.2h-1.2v5.2H37v-2c0-1.4.7-2.1 1.8-2.1h.1v-1.3c-1 .1-1.6.7-1.9 1.4zM42.1 61.5c-1.5 0-2.6 1.2-2.6 2.7 0 1.6 1.2 2.7 2.7 2.7 1 0 1.6-.4 2.1-1l-.7-.6c-.4.4-.8.6-1.4.6-.8 0-1.4-.5-1.5-1.3h3.8v-.3c.1-1.5-.7-2.8-2.4-2.8zm-1.4 2.3c.1-.8.6-1.4 1.4-1.4.8 0 1.2.6 1.3 1.4h-2.7zM49.8 62.4c-.4-.5-.9-.9-1.8-.9-1.2 0-2.4 1-2.4 2.7 0 1.7 1.2 2.7 2.4 2.7.9 0 1.4-.4 1.8-1v.9H51v-7.2h-1.2v2.8zm0 1.8c0 1-.7 1.7-1.5 1.7s-1.5-.7-1.5-1.7.7-1.7 1.5-1.7 1.5.7 1.5 1.7zM58.4 61.5c-.8 0-1.4.4-1.8 1v-2.9h-1.2v7.2h1.2V66c.4.5.9.9 1.8.9 1.2 0 2.4-1 2.4-2.7 0-1.8-1.2-2.7-2.4-2.7zm1.2 2.7c0 1-.7 1.7-1.5 1.7s-1.5-.7-1.5-1.7.7-1.7 1.5-1.7 1.5.7 1.5 1.7zM64.1 65.4l-1.5-3.9h-1.3l2.2 5.2c-.2.5-.4.6-.7.6-.2 0-.5-.1-.7-.2l-.4.9c.4.2.7.3 1.2.3.8 0 1.3-.4 1.7-1.5l2.1-5.4h-1.2l-1.4 4z"/><path fill="#A30046" d="M73.6 65.2l-2.1-5.3h-1.3l2.9 6.9h1l2.9-6.9h-1.3zM79.8 61.5c-1.5 0-2.6 1.2-2.6 2.7 0 1.6 1.2 2.7 2.7 2.7 1 0 1.6-.4 2.1-1l-.7-.6c-.4.4-.8.6-1.4.6-.8 0-1.4-.5-1.5-1.3h3.8v-.3c.1-1.5-.7-2.8-2.4-2.8zm-1.3 2.3c.1-.8.6-1.4 1.4-1.4.8 0 1.2.6 1.3 1.4h-2.7zM84.8 62.7v-1.2h-1.2v5.2h1.2v-2c0-1.4.7-2.1 1.8-2.1h.1v-1.3c-1 .1-1.6.7-1.9 1.4zM87.6 59.6h1.3v1.1h-1.3zM87.6 61.6h1.2v5.2h-1.2zM93.2 62.8c-1.3-.3-1.6-.6-1.6-1.1 0-.5.4-.8 1.1-.8.6 0 1.3.2 1.9.7l.7-.9c-.7-.6-1.5-.9-2.5-.9-1.4 0-2.4.8-2.4 2 0 1.3.8 1.7 2.3 2.1 1.3.3 1.6.6 1.6 1.1 0 .5-.5.9-1.2.9-.9 0-1.5-.3-2.2-.9l-.7.9c.8.7 1.8 1.1 2.9 1.1 1.5 0 2.5-.8 2.5-2.1-.2-1.2-.9-1.8-2.4-2.1zM96.8 59.6h1.3v1.1h-1.3zM96.8 61.6H98v5.2h-1.2zM103.5 62.3c-.4-.5-.9-.9-1.8-.9-1.2 0-2.4.9-2.4 2.5 0 1.5 1.1 2.4 2.4 2.4.9 0 1.4-.4 1.8-1v.4c0 1-.6 1.6-1.7 1.6-.7 0-1.3-.2-1.9-.6l-.4.9c.7.4 1.5.6 2.3.6.9 0 1.7-.2 2.1-.7.4-.4.7-1.1.7-2v-4.2h-1.2v1zm0 1.6c0 .8-.7 1.4-1.5 1.4s-1.5-.6-1.5-1.4c0-.9.7-1.4 1.5-1.4s1.5.5 1.5 1.4zM109 61.5c-.8 0-1.3.4-1.6.9v-.8h-1.2v5.2h1.2v-2.9c0-.8.5-1.3 1.2-1.3s1.1.5 1.1 1.3v3h1.2v-3.3c0-1.4-.7-2.1-1.9-2.1z"/><path fill="#FFC10E" d="M45.7 3.6h1.7v1.7h-1.7z"/></svg>